<svg xmlns="http://www.w3.org/2000/svg" width="748.428" height="209.8" viewBox="0 0 748.428 209.8">
  <g id="Group_78" data-name="Group 78" transform="translate(-585.232 -535.101)">
    <g id="Group_77" data-name="Group 77" transform="translate(145.445 40.245)">
      <g id="Group_75" data-name="Group 75" transform="translate(439.787 494.855)">
        <g id="Group_70" data-name="Group 70">
          <rect id="Rectangle_43" data-name="Rectangle 43" width="112.985" height="110.703" transform="translate(13.773 5.106)" fill="#ddf0ff"/>
          <g id="sun" transform="translate(76.156 18.027)">
            <g id="Group_48" data-name="Group 48">
              <g id="Group_47" data-name="Group 47">
                <circle id="Ellipse_10" data-name="Ellipse 10" cx="19.024" cy="19.024" r="19.024" transform="translate(0 0)" fill="#fcdd66"/>
              </g>
            </g>
            <g id="Group_50" data-name="Group 50" transform="translate(3.108 3.302)">
              <g id="Group_49" data-name="Group 49">
                <circle id="Ellipse_11" data-name="Ellipse 11" cx="15.749" cy="15.749" r="15.749" transform="translate(0 0)" fill="#fbd009"/>
              </g>
            </g>
          </g>
          <g id="Group_64" data-name="Group 64" transform="translate(31.897 25.969)">
            <path id="cloud-computing" d="M46.89,90.708c-2.1-10.629-11.976-17.455-22.065-15.246C16.2,77.35,10.006,85.332,9.963,94.611c0,.443.017.9.055,1.376-6.149.686-10.6,6.493-9.955,12.97A11.428,11.428,0,0,0,11.207,119.51h34.83c7.557-.007,13.678-6.466,13.671-14.427C59.7,97.479,54.092,91.189,46.89,90.708Z" transform="translate(0 -75.047)" fill="#bbdefb"/>
            <path id="cloud-computing-2" data-name="cloud-computing" d="M36.283,86.769A14.446,14.446,0,0,0,19.209,75.357a14.647,14.647,0,0,0-11.5,14.332c0,.331.013.671.042,1.03a8.837,8.837,0,0,0,.92,17.606H35.622a10.8,10.8,0,0,0,.66-21.557Z" transform="translate(6.558 -68.877)" fill="#a6d3f8"/>
          </g>
          <path id="Path_159" data-name="Path 159" d="M244.991,229.887s.114,12.446,0,12.711l-61.571-.353c4.885-4.447,9.771-11.108,14.656-15.552,2.175-1.981,6.755-6.219,11.176-10.282,4.518-4.148,8.873-8.115,10.327-9.29,2.777-2.246,5.831-3.914,8.47-1.945a29.572,29.572,0,0,1,3.322,3.483c3.547,4.111,8.385,10.209,9.676,10.645,1.853.621,3.575-2.151,5.48-1.654C247.479,217.9,244.991,229.887,244.991,229.887Z" transform="translate(-115.078 -116.177)" fill="#43af3e"/>
          <path id="Path_160" data-name="Path 160" d="M240.632,226.759s.1,16.557,0,16.789l-57.212-7.887q6.432-5.855,12.864-11.706c1.909-1.738,5.929-5.459,9.809-9.025,3.966-3.641,7.788-7.122,9.065-8.154,2.437-1.971,5.118-3.435,7.434-1.707a25.954,25.954,0,0,1,2.916,3.057c3.113,3.608,7.359,8.961,8.493,9.343,1.626.545,3.138-1.888,4.81-1.452C239.646,216.236,240.632,226.759,240.632,226.759Z" transform="translate(-110.713 -109.314)" fill="#00a23e"/>
          <path id="Path_161" data-name="Path 161" d="M93.22,181.358l-16.807,2.869H12.4V173.576s13.012-12.67,15.264-14.658c.458-.4.937-.815,1.44-1.179a5.019,5.019,0,0,1,3.561-1.21c1.6.214,2.308,2.211,3.779,2.412,1.8.245,3.49-2.234,4.379-3.541q3.394-4.978,6.783-9.955c1.43-2.1,3.209-4.4,5.638-4.46a4.122,4.122,0,0,1,1.9.427,11.864,11.864,0,0,1,3.985,3.93c1.614,2.249,7.18,10.645,8.645,12.36a6.265,6.265,0,0,0,4.792,2.444c1.159-.044,2.292-.542,3.445-.417a3.584,3.584,0,0,1,1.172.343,9.484,9.484,0,0,1,3.1,2.975c2.168,2.864,9.04,12.842,12.93,18.309Z" transform="translate(24.486 -54.752)" fill="#73d633"/>
          <path id="Path_162" data-name="Path 162" d="M117.044,216.01H61.659l-24.64,16.558L37.99,207.7s13.843-10.64,16.343-13.238a6.385,6.385,0,0,1,5.319-1.936c2.5.155,4.109,2.788,6.554,1.724a3.793,3.793,0,0,0,.5-.263c2.713-1.676,4.521-4.591,6.307-7.2,1.645-2.409,4.7-5.889,6.131-6.279a4.4,4.4,0,0,1,2.735-.034c1.145.4,2.319,1.451,3.96,3.491,1.91,2.375,3.576,4.506,5.448,6.913,1.5,1.926,2.584,3.273,3.462,4.2,1.276,1.349,2.1,1.807,3.08,1.852,1.059.047,2.064-.6,3.125-.591,2.415.025,4.229,2.2,5.7,4.182C109.9,204.894,113.8,211.637,117.044,216.01Z" transform="translate(-2.84 -85.441)" fill="#5dbf1d"/>
          <path id="Path_163" data-name="Path 163" d="M120.545,221.835H62.737L37.019,241.093l1.014-28.918s14.448-12.375,17.058-15.4a6.29,6.29,0,0,1,5.552-2.252c2.612.18,4.288,3.242,6.841,2.006a3.832,3.832,0,0,0,.522-.306c2.831-1.949,4.719-5.339,6.583-8.377,1.717-2.8,4.9-6.849,6.4-7.3a4.142,4.142,0,0,1,2.855-.039c1.2.471,2.42,1.688,4.133,4.06,1.994,2.762,3.732,5.24,5.686,8.039,1.562,2.24,2.7,3.807,3.613,4.886,1.332,1.569,2.192,2.1,3.215,2.153,1.106.054,2.154-.7,3.262-.687,2.52.03,4.414,2.557,5.95,4.864C113.086,208.908,117.16,216.75,120.545,221.835Z" transform="translate(-3.981 -77.992)" fill="#5dbf1d"/>
          <path id="Path_164" data-name="Path 164" d="M33.792,282.8h71.1V267.07s3.37-21.81-.691-25.482c-2.494-2.253-5.294-4.635-8.627-4.687-3.726-.059-6.787,2.782-10.047,4.628-5.979,3.382-10.394-.371-14.542-4.881-3.36-3.651-6.545-7.8-10.249-9.07a6.763,6.763,0,0,0-4.277-.085c-2.806.853-4.988,3.054-7.047,5.173q-1.607,1.658-3.221,3.32c-6.757,6.969-12.4,21.594-12.4,21.594Z" transform="translate(23.787 -116.787)" fill="#43af3e"/>
          <path id="Path_165" data-name="Path 165" d="M33.064,274.673h70.1v-9.094s4.954-22.509.308-26.1c-2.494-1.924-5.294-3.957-8.627-4-3.726-.05-6.787,2.375-10.047,3.952-5.979,2.888-10.394-.316-14.542-4.167-3.36-3.117-6.545-6.657-10.249-7.744a7.864,7.864,0,0,0-4.277-.073c-2.806.728-4.988,2.607-7.047,4.417q-1.607,1.416-3.221,2.834c-6.757,5.951-12.4,18.845-12.4,18.845Z" transform="translate(24.516 -108.657)" fill="#00a23e"/>
          <path id="Path_166" data-name="Path 166" d="M33.064,266.781h72.384V257.7s2.671-14.656-1.975-18.237c-2.494-1.921-5.294-3.951-8.627-4-3.726-.05-6.787,2.371-10.047,3.946-5.979,2.883-10.394-.316-14.542-4.161-3.36-3.112-6.545-6.647-10.249-7.732a7.876,7.876,0,0,0-4.277-.073c-2.806.727-4.988,2.6-7.047,4.41q-1.607,1.414-3.221,2.83c-6.757,5.941-12.4,18.816-12.4,18.816Z" transform="translate(24.516 -100.765)" fill="#5dbf1d"/>
          <path id="Path_167" data-name="Path 167" d="M0,53.684H197.966L154.53,0H44.356Z" transform="translate(67.027 11.487) rotate(90)" fill="#031690"/>
          <rect id="Rectangle_61" data-name="Rectangle 61" width="11.313" height="209.799" fill="#031690"/>
          <rect id="Rectangle_64" data-name="Rectangle 64" width="11.313" height="132.667" transform="translate(132.667) rotate(90)" fill="#031690"/>
          <rect id="Rectangle_62" data-name="Rectangle 62" width="11.313" height="209.799" transform="translate(121.354)" fill="#031690"/>
          <rect id="Rectangle_63" data-name="Rectangle 63" width="11.313" height="464.852" transform="translate(586.206 198.486) rotate(90)" fill="#031690"/>
        </g>
      </g>
    </g>
    <path id="Path_184" data-name="Path 184" d="M43.5-42V0H33.84V-34.08H14.88V0H5.22V-42Zm28.62,0a23.332,23.332,0,0,1,9.69,1.86,14.4,14.4,0,0,1,6.33,5.28,14.546,14.546,0,0,1,2.22,8.1,14.584,14.584,0,0,1-2.22,8.07,14.139,14.139,0,0,1-6.33,5.28,23.664,23.664,0,0,1-9.69,1.83H63.66V0H53.94V-42Zm-.54,22.5q4.38,0,6.66-1.89a6.583,6.583,0,0,0,2.28-5.37,6.653,6.653,0,0,0-2.28-5.43q-2.28-1.89-6.66-1.89H63.66V-19.5ZM117.42.72A24.515,24.515,0,0,1,105.63-2.1a20.93,20.93,0,0,1-8.22-7.77A21.212,21.212,0,0,1,94.44-21a21.212,21.212,0,0,1,2.97-11.13,20.93,20.93,0,0,1,8.22-7.77,24.515,24.515,0,0,1,11.79-2.82,24.341,24.341,0,0,1,11.76,2.82,21.2,21.2,0,0,1,8.22,7.77,21.05,21.05,0,0,1,3,11.13,21.05,21.05,0,0,1-3,11.13,21.2,21.2,0,0,1-8.22,7.77A24.341,24.341,0,0,1,117.42.72Zm0-8.28a13.328,13.328,0,0,0,6.72-1.71,12.271,12.271,0,0,0,4.71-4.77A14.022,14.022,0,0,0,130.56-21a14.022,14.022,0,0,0-1.71-6.96,12.271,12.271,0,0,0-4.71-4.77,13.328,13.328,0,0,0-6.72-1.71,13.328,13.328,0,0,0-6.72,1.71,12.271,12.271,0,0,0-4.71,4.77A14.022,14.022,0,0,0,104.28-21a14.022,14.022,0,0,0,1.71,6.96,12.271,12.271,0,0,0,4.71,4.77,13.328,13.328,0,0,0,6.72,1.71Zm72.6-.36V8.7h-9V0H151.38V8.7h-9l.06-16.62h1.68q3.78-.12,5.34-5.52t1.92-15.42L151.86-42h32.28V-7.92ZM159.96-27.96a88.1,88.1,0,0,1-1.26,12.57q-.96,5.07-2.94,7.47h18.78V-34.08h-14.4Zm62.64-.24q7.68,0,11.76,3.42t4.08,10.14q0,7.14-4.53,10.89T221.16,0h-18.9V-34.08H190.44V-42h21.42v13.8Zm-1.98,21a8.666,8.666,0,0,0,5.94-1.86,6.833,6.833,0,0,0,2.1-5.4q0-6.54-8.04-6.54h-8.76V-7.2ZM281.7-42V0h-9.6V-34.08H257.7l-.3,8.76a89.513,89.513,0,0,1-1.44,14.49,17.936,17.936,0,0,1-3.81,8.52A9.528,9.528,0,0,1,244.68.66a21.632,21.632,0,0,1-4.8-.66l.6-8.22a5.9,5.9,0,0,0,1.74.24q3.48,0,4.86-4.11t1.74-12.87l.6-17.04Zm48.6,25.08h-6.12V0h-9.54V-16.92H308.4L298.98,0H287.76l12.6-21.96L288.54-42H298.8l9.42,16.98h6.42V-42h9.54v16.98h6.24L339.9-42h10.26L338.4-21.96,350.94,0H339.72ZM383.22-9h-19.5L360,0h-9.96l18.72-42h9.6L397.14,0h-10.2Zm-3.06-7.38L373.5-32.46l-6.66,16.08Zm51.66-5.52a11.349,11.349,0,0,1,5.88,3.72,9.935,9.935,0,0,1,2.04,6.36,10.2,10.2,0,0,1-4.23,8.7Q431.28,0,423.42,0h-20.7V-42h19.56q7.32,0,11.4,2.82a9.192,9.192,0,0,1,4.08,8.04,9.756,9.756,0,0,1-1.56,5.49,10.767,10.767,0,0,1-4.38,3.75Zm-19.44-2.7h9.06a7.591,7.591,0,0,0,4.8-1.29,4.578,4.578,0,0,0,1.62-3.81,4.559,4.559,0,0,0-1.65-3.78,7.487,7.487,0,0,0-4.77-1.32h-9.06ZM423.06-7.2q6.84,0,6.84-5.4,0-5.22-6.84-5.22H412.38V-7.2ZM475.86-9h-19.5l-3.72,9h-9.96L461.4-42H471L489.78,0h-10.2Zm-3.06-7.38-6.66-16.08-6.66,16.08ZM533.58,0l-.06-25.14L521.16-4.44h-4.32L504.48-24.66V0h-9.12V-42h8.04l15.72,26.1L534.6-42h8.04l.06,42Zm52.08-7.8V0H553.14V-42h31.74v7.8H562.8v9.12h19.5v7.56H562.8V-7.8ZM43.5,33V75H33.84V40.92H14.88V75H5.22V33Zm28.62,0a23.332,23.332,0,0,1,9.69,1.86,14.4,14.4,0,0,1,6.33,5.28,14.546,14.546,0,0,1,2.22,8.1,14.584,14.584,0,0,1-2.22,8.07,14.139,14.139,0,0,1-6.33,5.28,23.665,23.665,0,0,1-9.69,1.83H63.66V75H53.94V33Zm-.54,22.5q4.38,0,6.66-1.89a6.583,6.583,0,0,0,2.28-5.37,6.653,6.653,0,0,0-2.28-5.43q-2.28-1.89-6.66-1.89H63.66V55.5Zm45.84,20.22a24.515,24.515,0,0,1-11.79-2.82,20.93,20.93,0,0,1-8.22-7.77A21.212,21.212,0,0,1,94.44,54a21.212,21.212,0,0,1,2.97-11.13,20.93,20.93,0,0,1,8.22-7.77,25.993,25.993,0,0,1,23.55,0,21.421,21.421,0,0,1,0,37.8,24.341,24.341,0,0,1-11.76,2.82Zm0-8.28a13.328,13.328,0,0,0,6.72-1.71,12.271,12.271,0,0,0,4.71-4.77,15.019,15.019,0,0,0,0-13.92,12.271,12.271,0,0,0-4.71-4.77,14.059,14.059,0,0,0-13.44,0,12.271,12.271,0,0,0-4.71,4.77,15.019,15.019,0,0,0,0,13.92,12.271,12.271,0,0,0,4.71,4.77,13.328,13.328,0,0,0,6.72,1.71ZM186.12,75l-.06-25.14L173.7,70.56h-4.32L157.02,50.34V75H147.9V33h8.04l15.72,26.1L187.14,33h8.04l.06,42Zm53.1-42V75h-9.6V63.84h-8.88L213.3,75H203.04l8.76-12.66a13.743,13.743,0,0,1-6.54-5.25,15.136,15.136,0,0,1-2.28-8.43,15.331,15.331,0,0,1,2.22-8.37,14.4,14.4,0,0,1,6.3-5.4A22.649,22.649,0,0,1,221.1,33Zm-17.88,7.92q-4.14,0-6.33,1.92a7.177,7.177,0,0,0-2.19,5.7,7.378,7.378,0,0,0,2.1,5.64q2.1,1.98,6.18,1.98h8.52V40.92ZM288.24,33V75h-9.72V57.78H259.44V75h-9.72V33h9.72V49.56h19.08V33Zm38.94,33h-19.5l-3.72,9H294l18.72-42h9.6L341.1,75H330.9Zm-3.06-7.38-6.66-16.08L310.8,58.62Zm52.56-17.7H363.24V75h-9.6V40.92H340.26V33h36.42ZM409.14,66h-19.5l-3.72,9h-9.96l18.72-42h9.6l18.78,42h-10.2Zm-3.06-7.38-6.66-16.08-6.66,16.08Z" transform="translate(748 614)" fill="#041690"/>
  </g>
</svg>
